<?xml version="1.0" encoding="utf-8"?>
<!-- Generator: Adobe Illustrator 20.1.0, SVG Export Plug-In . SVG Version: 6.00 Build 0)  -->
<svg version="1.1" id="圖層_3" xmlns="http://www.w3.org/2000/svg" xmlns:xlink="http://www.w3.org/1999/xlink" x="0px" y="0px"
	 viewBox="0 0 98.5 58.2" style="enable-background:new 0 0 98.5 58.2;" xml:space="preserve">
<style type="text/css">
	.st0{fill:#727171;}
	.st1{fill:#D71718;}
	.st2{fill:#595758;}
</style>
<rect y="30.2" class="st0" width="6" height="28"/>
<rect class="st1" width="6" height="28"/>
<g>
	<g>
		<path class="st2" d="M23.1,14.6c0,1.8-1.1,2.7-2.5,2.7c-1.4,0-2.4-1-2.4-2.6c0-1.6,1.1-2.7,2.5-2.7C22.2,12,23.1,13.1,23.1,14.6z
			 M19,14.7c0,1.1,0.6,2.1,1.7,2.1c1.1,0,1.7-1,1.7-2.1c0-1-0.6-2.1-1.7-2.1C19.5,12.5,19,13.5,19,14.7z"/>
		<path class="st2" d="M24.8,13.5l0.8,2.1c0.1,0.3,0.2,0.6,0.3,0.9h0c0.1-0.3,0.2-0.6,0.3-0.9l0.8-2.1h0.7l-1.5,3.7h-0.7l-1.5-3.7
			H24.8z"/>
		<path class="st2" d="M29.1,15.5c0,0.9,0.6,1.3,1.3,1.3c0.5,0,0.8-0.1,1.1-0.2l0.1,0.5c-0.2,0.1-0.7,0.2-1.3,0.2
			c-1.2,0-1.9-0.7-1.9-1.9s0.7-2,1.8-2c1.3,0,1.6,1.1,1.6,1.7c0,0.1,0,0.2,0,0.3H29.1z M31.2,15c0-0.4-0.2-1.1-1-1.1
			c-0.7,0-1,0.6-1.1,1.1H31.2z"/>
		<path class="st2" d="M33.1,14.7c0-0.4,0-0.8,0-1.1h0.6l0,0.7h0c0.2-0.5,0.6-0.8,1.1-0.8c0.1,0,0.1,0,0.2,0v0.6c-0.1,0-0.1,0-0.2,0
			c-0.5,0-0.8,0.4-0.9,0.9c0,0.1,0,0.2,0,0.3v2h-0.7V14.7z"/>
		<path class="st2" d="M36,16.5c0.2,0.1,0.6,0.3,0.9,0.3c0.5,0,0.8-0.2,0.8-0.5c0-0.3-0.2-0.5-0.7-0.7c-0.7-0.2-1-0.6-1-1
			c0-0.6,0.5-1.1,1.3-1.1c0.4,0,0.7,0.1,1,0.2l-0.2,0.5c-0.2-0.1-0.4-0.2-0.8-0.2c-0.4,0-0.6,0.2-0.6,0.5c0,0.3,0.2,0.4,0.7,0.6
			c0.7,0.2,1,0.6,1,1.1c0,0.6-0.5,1.1-1.4,1.1c-0.4,0-0.8-0.1-1.1-0.3L36,16.5z"/>
		<path class="st2" d="M40.1,15.5c0,0.9,0.6,1.3,1.3,1.3c0.5,0,0.8-0.1,1.1-0.2l0.1,0.5c-0.2,0.1-0.7,0.2-1.3,0.2
			c-1.2,0-1.9-0.7-1.9-1.9s0.7-2,1.8-2c1.3,0,1.6,1.1,1.6,1.7c0,0.1,0,0.2,0,0.3H40.1z M42.2,15c0-0.4-0.2-1.1-1-1.1
			c-0.7,0-1,0.6-1.1,1.1H42.2z"/>
		<path class="st2" d="M46.2,17.2l-0.1-0.5h0C46,17,45.5,17.3,45,17.3c-0.8,0-1.2-0.5-1.2-1.1c0-0.9,0.8-1.4,2.3-1.4v-0.1
			c0-0.3-0.1-0.9-0.9-0.9c-0.4,0-0.7,0.1-1,0.3l-0.2-0.4c0.3-0.2,0.8-0.3,1.3-0.3c1.2,0,1.5,0.8,1.5,1.5v1.4c0,0.3,0,0.6,0.1,0.9
			H46.2z M46.1,15.3c-0.8,0-1.6,0.1-1.6,0.8c0,0.4,0.3,0.6,0.7,0.6c0.5,0,0.8-0.3,0.9-0.6c0-0.1,0-0.1,0-0.2V15.3z"/>
		<path class="st2" d="M48.3,16.5c0.2,0.1,0.6,0.3,0.9,0.3c0.5,0,0.8-0.2,0.8-0.5c0-0.3-0.2-0.5-0.7-0.7c-0.7-0.2-1-0.6-1-1
			c0-0.6,0.5-1.1,1.3-1.1c0.4,0,0.7,0.1,1,0.2l-0.2,0.5c-0.2-0.1-0.4-0.2-0.8-0.2c-0.4,0-0.6,0.2-0.6,0.5c0,0.3,0.2,0.4,0.7,0.6
			c0.7,0.2,1,0.6,1,1.1c0,0.6-0.5,1.1-1.4,1.1c-0.4,0-0.8-0.1-1.1-0.3L48.3,16.5z"/>
		<path class="st2" d="M54,16.4c0.3,0.2,0.8,0.3,1.2,0.3c0.7,0,1.1-0.4,1.1-0.9c0-0.5-0.3-0.8-1-1c-0.9-0.3-1.4-0.7-1.4-1.5
			c0-0.8,0.7-1.4,1.7-1.4c0.6,0,1,0.1,1.2,0.3l-0.2,0.5c-0.2-0.1-0.5-0.2-1-0.2c-0.7,0-1,0.4-1,0.8c0,0.5,0.3,0.7,1.1,1
			c0.9,0.3,1.4,0.8,1.4,1.5c0,0.8-0.6,1.5-1.9,1.5c-0.5,0-1.1-0.1-1.4-0.3L54,16.4z"/>
		<path class="st2" d="M61.6,16.2c0,0.4,0,0.7,0,1H61l0-0.6h0c-0.2,0.3-0.6,0.7-1.3,0.7c-0.6,0-1.3-0.3-1.3-1.6v-2.2H59v2
			c0,0.7,0.2,1.2,0.9,1.2c0.5,0,0.8-0.3,0.9-0.6c0-0.1,0.1-0.2,0.1-0.3v-2.3h0.7V16.2z"/>
		<path class="st2" d="M63.1,17.2c0-0.3,0-0.6,0-1v-4.4h0.7v2.3h0c0.2-0.4,0.7-0.7,1.3-0.7c1,0,1.6,0.8,1.6,1.9c0,1.3-0.9,2-1.7,2
			c-0.6,0-1-0.2-1.3-0.7h0l0,0.6H63.1z M63.9,15.7c0,0.1,0,0.2,0,0.2c0.1,0.5,0.5,0.8,1.1,0.8c0.7,0,1.2-0.6,1.2-1.4
			c0-0.7-0.4-1.4-1.2-1.4c-0.5,0-0.9,0.3-1.1,0.8c0,0.1,0,0.2,0,0.3V15.7z"/>
		<path class="st2" d="M68,16.5c0.2,0.1,0.6,0.3,0.9,0.3c0.5,0,0.8-0.2,0.8-0.5c0-0.3-0.2-0.5-0.7-0.7c-0.7-0.2-1-0.6-1-1
			c0-0.6,0.5-1.1,1.3-1.1c0.4,0,0.7,0.1,1,0.2l-0.2,0.5c-0.2-0.1-0.4-0.2-0.8-0.2c-0.4,0-0.6,0.2-0.6,0.5c0,0.3,0.2,0.4,0.7,0.6
			c0.7,0.2,1,0.6,1,1.1c0,0.6-0.5,1.1-1.4,1.1c-0.4,0-0.8-0.1-1.1-0.3L68,16.5z"/>
		<path class="st2" d="M72.5,12.5c0,0.2-0.2,0.4-0.4,0.4c-0.2,0-0.4-0.2-0.4-0.4c0-0.2,0.2-0.4,0.4-0.4
			C72.3,12.1,72.5,12.3,72.5,12.5z M71.7,17.2v-3.7h0.7v3.7H71.7z"/>
		<path class="st2" d="M77.3,11.8v4.4c0,0.3,0,0.7,0,1h-0.6l0-0.6h0c-0.2,0.4-0.7,0.7-1.3,0.7c-0.9,0-1.7-0.8-1.7-1.9
			c0-1.2,0.8-2,1.7-2c0.6,0,1,0.3,1.2,0.6h0v-2.2H77.3z M76.6,15c0-0.1,0-0.2,0-0.3c-0.1-0.4-0.5-0.8-1-0.8c-0.7,0-1.2,0.6-1.2,1.4
			c0,0.7,0.4,1.4,1.1,1.4c0.5,0,0.9-0.3,1-0.8c0-0.1,0-0.2,0-0.3V15z"/>
		<path class="st2" d="M79.7,12.5c0,0.2-0.2,0.4-0.4,0.4c-0.2,0-0.4-0.2-0.4-0.4c0-0.2,0.2-0.4,0.4-0.4
			C79.5,12.1,79.7,12.3,79.7,12.5z M78.9,17.2v-3.7h0.7v3.7H78.9z"/>
		<path class="st2" d="M83.3,17.2l-0.1-0.5h0C83,17,82.6,17.3,82,17.3c-0.8,0-1.2-0.5-1.2-1.1c0-0.9,0.8-1.4,2.3-1.4v-0.1
			c0-0.3-0.1-0.9-0.9-0.9c-0.4,0-0.7,0.1-1,0.3l-0.2-0.4c0.3-0.2,0.8-0.3,1.3-0.3c1.2,0,1.5,0.8,1.5,1.5v1.4c0,0.3,0,0.6,0.1,0.9
			H83.3z M83.2,15.3c-0.8,0-1.6,0.1-1.6,0.8c0,0.4,0.3,0.6,0.7,0.6c0.5,0,0.8-0.3,0.9-0.6c0-0.1,0-0.1,0-0.2V15.3z"/>
		<path class="st2" d="M85.4,14.7c0-0.4,0-0.8,0-1.1H86l0,0.7h0c0.2-0.5,0.6-0.8,1.1-0.8c0.1,0,0.1,0,0.2,0v0.6c-0.1,0-0.1,0-0.2,0
			c-0.5,0-0.8,0.4-0.9,0.9c0,0.1,0,0.2,0,0.3v2h-0.7V14.7z"/>
		<path class="st2" d="M89.2,12.5c0,0.2-0.2,0.4-0.4,0.4c-0.2,0-0.4-0.2-0.4-0.4c0-0.2,0.2-0.4,0.4-0.4
			C89.1,12.1,89.2,12.3,89.2,12.5z M88.5,17.2v-3.7h0.7v3.7H88.5z"/>
		<path class="st2" d="M91.1,15.5c0,0.9,0.6,1.3,1.3,1.3c0.5,0,0.8-0.1,1.1-0.2l0.1,0.5c-0.2,0.1-0.7,0.2-1.3,0.2
			c-1.2,0-1.9-0.7-1.9-1.9s0.7-2,1.8-2c1.3,0,1.6,1.1,1.6,1.7c0,0.1,0,0.2,0,0.3H91.1z M93.2,15c0-0.4-0.2-1.1-1-1.1
			c-0.7,0-1,0.6-1.1,1.1H93.2z"/>
		<path class="st2" d="M95,16.5c0.2,0.1,0.6,0.3,0.9,0.3c0.5,0,0.8-0.2,0.8-0.5c0-0.3-0.2-0.5-0.7-0.7c-0.7-0.2-1-0.6-1-1
			c0-0.6,0.5-1.1,1.3-1.1c0.4,0,0.7,0.1,1,0.2l-0.2,0.5c-0.2-0.1-0.4-0.2-0.8-0.2c-0.4,0-0.6,0.2-0.6,0.5c0,0.3,0.2,0.4,0.7,0.6
			c0.7,0.2,1,0.6,1,1.1c0,0.6-0.5,1.1-1.4,1.1c-0.4,0-0.8-0.1-1.1-0.3L95,16.5z"/>
	</g>
</g>
<g>
	<g>
		<path class="st2" d="M18.2,39.3h-1.6v-0.6h4v0.6h-1.6v4.6h-0.7V39.3z"/>
		<path class="st2" d="M21.4,42.2c0,0.9,0.6,1.3,1.3,1.3c0.5,0,0.8-0.1,1.1-0.2l0.1,0.5c-0.2,0.1-0.7,0.2-1.3,0.2
			c-1.2,0-1.9-0.7-1.9-1.9c0-1.1,0.7-2,1.8-2c1.3,0,1.6,1.1,1.6,1.7c0,0.1,0,0.2,0,0.3H21.4z M23.5,41.7c0-0.4-0.2-1.1-1-1.1
			c-0.7,0-1,0.6-1.1,1.1H23.5z"/>
		<path class="st2" d="M28.2,43.8C28,43.9,27.6,44,27.1,44c-1.2,0-1.9-0.8-1.9-1.9c0-1.1,0.8-2,2.1-2c0.4,0,0.8,0.1,1,0.2L28,40.9
			c-0.2-0.1-0.4-0.2-0.8-0.2c-0.9,0-1.4,0.6-1.4,1.4c0,0.9,0.6,1.4,1.3,1.4c0.4,0,0.7-0.1,0.9-0.2L28.2,43.8z"/>
		<path class="st2" d="M29.4,38.5h0.7v2.3h0c0.1-0.2,0.3-0.4,0.5-0.5c0.2-0.1,0.5-0.2,0.7-0.2c0.5,0,1.4,0.3,1.4,1.6v2.2H32v-2.1
			c0-0.6-0.2-1.1-0.9-1.1c-0.5,0-0.8,0.3-0.9,0.7c0,0.1,0,0.2,0,0.3v2.2h-0.7V38.5z"/>
		<path class="st2" d="M34.2,41.2c0-0.4,0-0.7,0-1h0.6l0,0.6h0c0.2-0.3,0.6-0.7,1.3-0.7c0.5,0,1.4,0.3,1.4,1.6v2.2h-0.7v-2.1
			c0-0.6-0.2-1.1-0.9-1.1c-0.5,0-0.8,0.3-0.9,0.7c0,0.1,0,0.2,0,0.3v2.2h-0.7V41.2z"/>
		<path class="st2" d="M39.9,39.2c0,0.2-0.2,0.4-0.4,0.4c-0.2,0-0.4-0.2-0.4-0.4c0-0.2,0.2-0.4,0.4-0.4C39.7,38.8,39.9,39,39.9,39.2
			z M39.1,43.9v-3.7h0.7v3.7H39.1z"/>
		<path class="st2" d="M44.1,43.8C43.9,43.9,43.5,44,43,44c-1.2,0-1.9-0.8-1.9-1.9c0-1.1,0.8-2,2.1-2c0.4,0,0.8,0.1,1,0.2L44,40.9
			c-0.2-0.1-0.4-0.2-0.8-0.2c-0.9,0-1.4,0.6-1.4,1.4c0,0.9,0.6,1.4,1.3,1.4c0.4,0,0.7-0.1,0.9-0.2L44.1,43.8z"/>
		<path class="st2" d="M47.5,43.9l-0.1-0.5h0c-0.2,0.3-0.6,0.5-1.2,0.5c-0.8,0-1.2-0.5-1.2-1.1c0-0.9,0.8-1.4,2.3-1.4v-0.1
			c0-0.3-0.1-0.9-0.9-0.9c-0.4,0-0.7,0.1-1,0.3l-0.2-0.4c0.3-0.2,0.8-0.3,1.3-0.3c1.2,0,1.5,0.8,1.5,1.5V43c0,0.3,0,0.6,0.1,0.9
			H47.5z M47.4,42c-0.8,0-1.6,0.1-1.6,0.8c0,0.4,0.3,0.6,0.7,0.6c0.5,0,0.8-0.3,0.9-0.6c0-0.1,0-0.1,0-0.2V42z"/>
		<path class="st2" d="M49.6,38.5h0.7v5.4h-0.7V38.5z"/>
		<path class="st2" d="M57.8,43.7C57.5,43.9,57,44,56.3,44c-1.5,0-2.7-0.9-2.7-2.6c0-1.6,1.1-2.7,2.8-2.7c0.7,0,1.1,0.1,1.3,0.2
			l-0.2,0.5c-0.3-0.1-0.6-0.2-1.1-0.2c-1.3,0-2.1,0.8-2.1,2.1c0,1.3,0.8,2.1,2.1,2.1c0.4,0,0.9-0.1,1.1-0.2L57.8,43.7z"/>
		<path class="st2" d="M62.4,42c0,1.4-1,2-1.9,2c-1,0-1.9-0.7-1.9-1.9c0-1.2,0.8-2,1.9-2C61.7,40.1,62.4,40.9,62.4,42z M59.4,42.1
			c0,0.8,0.5,1.4,1.2,1.4c0.7,0,1.2-0.6,1.2-1.4c0-0.6-0.3-1.4-1.2-1.4C59.7,40.6,59.4,41.4,59.4,42.1z"/>
		<path class="st2" d="M67.2,42c0,1.4-1,2-1.9,2c-1,0-1.9-0.7-1.9-1.9c0-1.2,0.8-2,1.9-2C66.5,40.1,67.2,40.9,67.2,42z M64.1,42.1
			c0,0.8,0.5,1.4,1.2,1.4c0.7,0,1.2-0.6,1.2-1.4c0-0.6-0.3-1.4-1.2-1.4S64.1,41.4,64.1,42.1z"/>
		<path class="st2" d="M68.5,41.4c0-0.5,0-0.9,0-1.2h0.6l0,0.6h0c0.3-0.4,0.7-0.7,1.4-0.7c0.9,0,1.6,0.8,1.6,1.9c0,1.3-0.8,2-1.8,2
			c-0.5,0-1-0.2-1.2-0.6h0v2h-0.7V41.4z M69.2,42.4c0,0.1,0,0.2,0,0.3c0.1,0.5,0.6,0.8,1.1,0.8c0.7,0,1.2-0.6,1.2-1.4
			c0-0.7-0.4-1.4-1.2-1.4c-0.5,0-0.9,0.3-1.1,0.8c0,0.1,0,0.2,0,0.3V42.4z"/>
		<path class="st2" d="M73.9,42.2c0,0.9,0.6,1.3,1.3,1.3c0.5,0,0.8-0.1,1.1-0.2l0.1,0.5c-0.2,0.1-0.7,0.2-1.3,0.2
			c-1.2,0-1.9-0.7-1.9-1.9c0-1.1,0.7-2,1.8-2c1.3,0,1.6,1.1,1.6,1.7c0,0.1,0,0.2,0,0.3H73.9z M75.9,41.7c0-0.4-0.2-1.1-1-1.1
			c-0.7,0-1,0.6-1.1,1.1H75.9z"/>
		<path class="st2" d="M77.9,41.4c0-0.4,0-0.8,0-1.1h0.6l0,0.7h0c0.2-0.5,0.6-0.8,1.1-0.8c0.1,0,0.1,0,0.2,0v0.6c-0.1,0-0.1,0-0.2,0
			c-0.5,0-0.8,0.4-0.9,0.9c0,0.1,0,0.2,0,0.3v2h-0.7V41.4z"/>
		<path class="st2" d="M83,43.9l-0.1-0.5h0c-0.2,0.3-0.6,0.5-1.2,0.5c-0.8,0-1.2-0.5-1.2-1.1c0-0.9,0.8-1.4,2.3-1.4v-0.1
			c0-0.3-0.1-0.9-0.9-0.9c-0.4,0-0.7,0.1-1,0.3l-0.2-0.4c0.3-0.2,0.8-0.3,1.3-0.3c1.2,0,1.5,0.8,1.5,1.5V43c0,0.3,0,0.6,0.1,0.9H83z
			 M82.9,42c-0.8,0-1.6,0.1-1.6,0.8c0,0.4,0.3,0.6,0.7,0.6c0.5,0,0.8-0.3,0.9-0.6c0-0.1,0-0.1,0-0.2V42z"/>
		<path class="st2" d="M85.9,39.2v1.1h1v0.5h-1v2c0,0.5,0.1,0.7,0.5,0.7c0.2,0,0.3,0,0.4,0l0,0.5c-0.1,0.1-0.4,0.1-0.6,0.1
			c-0.3,0-0.6-0.1-0.8-0.3c-0.2-0.2-0.3-0.5-0.3-1v-2h-0.6v-0.5h0.6v-0.9L85.9,39.2z"/>
		<path class="st2" d="M88.9,39.2c0,0.2-0.2,0.4-0.4,0.4c-0.2,0-0.4-0.2-0.4-0.4c0-0.2,0.2-0.4,0.4-0.4C88.7,38.8,88.9,39,88.9,39.2
			z M88.1,43.9v-3.7h0.7v3.7H88.1z"/>
		<path class="st2" d="M93.9,42c0,1.4-1,2-1.9,2c-1,0-1.9-0.7-1.9-1.9c0-1.2,0.8-2,1.9-2C93.1,40.1,93.9,40.9,93.9,42z M90.8,42.1
			c0,0.8,0.5,1.4,1.2,1.4c0.7,0,1.2-0.6,1.2-1.4c0-0.6-0.3-1.4-1.2-1.4S90.8,41.4,90.8,42.1z"/>
		<path class="st2" d="M95.2,41.2c0-0.4,0-0.7,0-1h0.6l0,0.6h0c0.2-0.3,0.6-0.7,1.3-0.7c0.5,0,1.4,0.3,1.4,1.6v2.2h-0.7v-2.1
			c0-0.6-0.2-1.1-0.9-1.1c-0.5,0-0.8,0.3-0.9,0.7c0,0.1,0,0.2,0,0.3v2.2h-0.7V41.2z"/>
		<path class="st2" d="M44.9,46.8h2.9v0.6h-2.2V49h2v0.5h-2v2.3h-0.7V46.8z"/>
		<path class="st2" d="M51,51.9l-0.1-0.5h0c-0.2,0.3-0.6,0.5-1.2,0.5c-0.8,0-1.2-0.5-1.2-1.1c0-0.9,0.8-1.4,2.3-1.4v-0.1
			c0-0.3-0.1-0.9-0.9-0.9c-0.4,0-0.7,0.1-1,0.3l-0.2-0.4c0.3-0.2,0.8-0.3,1.3-0.3c1.2,0,1.5,0.8,1.5,1.5V51c0,0.3,0,0.6,0.1,0.9H51z
			 M50.9,50c-0.8,0-1.6,0.1-1.6,0.8c0,0.4,0.3,0.6,0.7,0.6c0.5,0,0.8-0.3,0.9-0.6c0-0.1,0-0.1,0-0.2V50z"/>
		<path class="st2" d="M55.8,51.8c-0.2,0.1-0.6,0.2-1.1,0.2c-1.2,0-1.9-0.8-1.9-1.9c0-1.1,0.8-2,2.1-2c0.4,0,0.8,0.1,1,0.2l-0.2,0.5
			c-0.2-0.1-0.4-0.2-0.8-0.2c-0.9,0-1.4,0.6-1.4,1.4c0,0.9,0.6,1.4,1.3,1.4c0.4,0,0.7-0.1,0.9-0.2L55.8,51.8z"/>
		<path class="st2" d="M58,47.2v1.1h1v0.5h-1v2c0,0.5,0.1,0.7,0.5,0.7c0.2,0,0.3,0,0.4,0l0,0.5c-0.1,0.1-0.4,0.1-0.6,0.1
			c-0.3,0-0.6-0.1-0.8-0.3c-0.2-0.2-0.3-0.5-0.3-1v-2h-0.6v-0.5h0.6v-0.9L58,47.2z"/>
		<path class="st2" d="M63.7,50c0,1.4-1,2-1.9,2c-1,0-1.9-0.7-1.9-1.9c0-1.2,0.8-2,1.9-2C62.9,48.1,63.7,48.9,63.7,50z M60.6,50.1
			c0,0.8,0.5,1.4,1.2,1.4c0.7,0,1.2-0.6,1.2-1.4c0-0.6-0.3-1.4-1.2-1.4S60.6,49.4,60.6,50.1z"/>
		<path class="st2" d="M65,49.4c0-0.4,0-0.8,0-1.1h0.6l0,0.7h0c0.2-0.5,0.6-0.8,1.1-0.8c0.1,0,0.1,0,0.2,0v0.6c-0.1,0-0.1,0-0.2,0
			c-0.5,0-0.8,0.4-0.9,0.9c0,0.1,0,0.2,0,0.3v2H65V49.4z"/>
		<path class="st2" d="M68.4,48.2l0.8,2.2c0.1,0.2,0.2,0.5,0.2,0.8h0c0.1-0.2,0.2-0.5,0.2-0.8l0.8-2.2h0.7l-1.1,2.6
			c-0.5,1.3-0.8,1.9-1.3,2.3c-0.3,0.3-0.7,0.4-0.9,0.4L67.9,53c0.2-0.1,0.4-0.2,0.6-0.3c0.2-0.1,0.4-0.4,0.6-0.7
			c0-0.1,0.1-0.1,0.1-0.2c0,0,0-0.1,0-0.2l-1.4-3.4H68.4z"/>
	</g>
</g>
</svg>
