<?xml version="1.0" encoding="utf-8"?>
<!-- Generator: Adobe Illustrator 19.2.1, SVG Export Plug-In . SVG Version: 6.00 Build 0)  -->
<svg version="1.1" id="圖層_1" xmlns="http://www.w3.org/2000/svg" xmlns:xlink="http://www.w3.org/1999/xlink" x="0px" y="0px"
	 viewBox="0 0 38.8 38.8" style="enable-background:new 0 0 38.8 38.8;" xml:space="preserve">
<style type="text/css">
	.st0{fill:#FFFFFF;stroke:#d71518;stroke-width:2.873;stroke-miterlimit:10;}
	.st1{fill:url(#SVGID_1_);}
	.st2{fill:url(#SVGID_2_);}
	.st3{fill:#E60012;}
</style>
<g>
	<g>
		<g>
			<ellipse class="st0" cx="19.4" cy="19.4" rx="18" ry="18"/>
			<g>
				<g>
					<linearGradient id="SVGID_1_" gradientUnits="userSpaceOnUse" x1="19.4156" y1="22.9269" x2="19.4156" y2="8.153">
						<stop  offset="0" style="stop-color:#FFFFFF"/>
						<stop  offset="1" style="stop-color:#000000"/>
					</linearGradient>
					<path class="st1" d="M29.6,14.3c0-3-4.6-5.4-10.1-5.4c-5.6,0-10.1,2.4-10.1,5.4c0,1.5,1.2,2.9,3.1,3.9v0.3
						c1,0.5,2.2,0.9,3.5,1.2v-0.3c1.1,0.2,2.3,0.3,3.5,0.3c1.7,0,3.3-0.2,4.7-0.6c1.2-0.2,2.2-0.7,3.1-1.3
						C28.6,16.8,29.6,15.6,29.6,14.3z M9.9,14.3c0-2.7,4.3-5,9.5-5c5.2,0,9.5,2.2,9.5,5c0,1.5-1.3,2.9-3.5,3.8c-0.3,0-0.7,0.1-1,0.1
						c-3.1,0-5.5-1.6-5.5-3.5c0-1.9,2.4-3.5,5.5-3.5c0.7,0,1.3,0.1,1.9,0.2c-1.1-0.6-2.6-1-4.1-1c-3,0-5.4,1.3-6.3,3v-3.1
						c-1.4,0.3-2.6,0.7-3.5,1.3v6C10.8,16.8,9.9,15.6,9.9,14.3z M15.9,18.9v-2.7c0.7,1.5,2.7,2.7,5.1,3c-0.5,0-1,0.1-1.6,0.1
						C18.2,19.2,17,19.1,15.9,18.9z"/>
					<linearGradient id="SVGID_2_" gradientUnits="userSpaceOnUse" x1="19.4146" y1="6.3019" x2="19.4146" y2="20.7872">
						<stop  offset="0" style="stop-color:#AAABAB"/>
						<stop  offset="0.1499" style="stop-color:#D7D8D8"/>
						<stop  offset="0.269" style="stop-color:#F4F4F4"/>
						<stop  offset="0.3371" style="stop-color:#FFFFFF"/>
						<stop  offset="0.924" style="stop-color:#1E1E1E"/>
						<stop  offset="1" style="stop-color:#000000"/>
					</linearGradient>
					<path class="st2" d="M19.4,8.2c-6.2,0-11.2,2.8-11.2,6.1s5,6.1,11.2,6.1c6.2,0,11.2-2.8,11.2-6.1S25.6,8.2,19.4,8.2z
						 M15.7,19.3l0-4.3c0.2,2.2,3.1,4,6.6,4c0.9,0,1.7-0.1,2.3-0.2c-1.5,0.5-3.4,0.8-5.3,0.8C18.1,19.7,16.9,19.6,15.7,19.3z
						 M27.8,17.3c-1,0.6-2.4,1-3.9,1c-3.1,0-5.4-1.6-5.4-3.6c0-2,2.3-3.6,5.4-3.6c0.9,0,1.7,0.1,2.4,0.3c-1.1-0.5-2.5-0.9-3.9-0.9
						c-3.6,0-6.5,1.8-6.6,4.1l0-4c-1.2,0.3-2.2,0.6-3.1,1.1v6.6c-2.1-1-3.4-2.4-3.4-4c0-3,4.6-5.4,10.1-5.4c5.6,0,10.1,2.4,10.1,5.4
						C29.6,15.4,28.9,16.4,27.8,17.3z"/>
				</g>
				<g>
					<polygon class="st3" points="20.3,22.4 19.8,22.4 18.8,25 17.9,22.4 17.4,22.4 16.9,22.4 16.3,22.4 16.3,26.4 17.4,26.4 
						17.4,23.8 18.3,26.4 19.3,26.4 20.3,23.6 20.3,26.4 21.4,26.4 21.4,22.4 20.7,22.4 					"/>
					<polygon class="st3" points="13.7,23.7 12.7,22.4 11.4,22.4 13.1,24.7 13.1,26.4 14.3,26.4 14.3,24.7 16,22.4 14.7,22.4 					
						"/>
					<path class="st3" d="M29.7,25.6c-0.8,0-1.4-0.5-1.4-1.2s0.6-1.2,1.4-1.2c0.8,0,1.4,0.5,1.4,1.2S30.5,25.6,29.7,25.6 M29.7,22.2
						c-1.4,0-2.6,1-2.6,2.1c0,1.2,1.1,2.1,2.6,2.1c1.4,0,2.6-1,2.6-2.1C32.3,23.2,31.1,22.2,29.7,22.2"/>
					<path class="st3" d="M24.4,23.2c0.5,0,1,0.2,1.2,0.6h1.3c-0.3-0.9-1.3-1.6-2.5-1.6c-1.4,0-2.6,1-2.6,2.1c0,1.2,1.1,2.1,2.6,2.1
						c1.2,0,2.2-0.7,2.5-1.6h-1.3c-0.2,0.4-0.7,0.6-1.2,0.6c-0.8,0-1.4-0.5-1.4-1.2C23,23.7,23.6,23.2,24.4,23.2"/>
					<polygon class="st3" points="11.1,22.4 9.4,22.4 7.7,23.7 7.7,22.4 6.6,22.4 6.6,26.4 7.7,26.4 7.7,25 8.5,24.3 9.7,26.4 
						11.1,26.4 9.5,23.6 					"/>
				</g>
			</g>
		</g>
	</g>
</g>
</svg>
