<?xml version="1.0" encoding="utf-8"?>
<!-- Generator: Adobe Illustrator 19.2.1, SVG Export Plug-In . SVG Version: 6.00 Build 0)  -->
<svg version="1.1" id="圖層_3" xmlns="http://www.w3.org/2000/svg" xmlns:xlink="http://www.w3.org/1999/xlink" x="0px" y="0px"
	 viewBox="0 0 122.7 19.3" style="enable-background:new 0 0 122.7 19.3;" xml:space="preserve">
<style type="text/css">
	.st0{fill:#FFFFFF;}
</style>
<g>
	<path class="st0" d="M17.7,0C7.9,0,0,4.3,0,9.6c0,5.3,7.9,9.6,17.7,9.6c9.7,0,17.7-4.3,17.7-9.6C35.3,4.3,27.4,0,17.7,0z
		 M17.7,17.4c-2,0-3.8-0.2-5.5-0.6v-4.2c1.2,2.4,4.3,4.2,8,4.7C19.4,17.4,18.5,17.4,17.7,17.4z M27.2,15.6c-0.5,0.1-1,0.1-1.6,0.1
		c-4.9,0-8.7-2.4-8.7-5.5c0-3,3.8-5.5,8.7-5.5c1,0,2,0.1,2.9,0.3c-1.8-0.9-4.1-1.5-6.5-1.5c-4.6,0-8.5,2-9.9,4.8V3.6
		c-2.2,0.4-4,1.1-5.5,2v9.4c-2.5-1.4-4-3.2-4-5.3c0-4.3,6.7-7.8,15-7.8c8.2,0,15,3.5,15,7.8C32.6,12,30.5,14.2,27.2,15.6z"/>
	<g>
		<g>
			<polygon class="st0" points="85,3.8 83.3,3.8 80.4,12 77.4,3.8 76,3.8 74.3,3.8 72.4,3.8 72.4,16.3 76,16.3 76,8.4 78.8,16.3 
				81.9,16.3 85,7.8 85,16.3 88.6,16.3 88.6,3.8 86.4,3.8 			"/>
			<polygon class="st0" points="64.2,8.1 61,3.8 57,3.8 62.4,11 62.4,16.4 66,16.4 66,11 71.5,3.8 67.5,3.8 			"/>
			<path class="st0" d="M114.6,13.8c-2.4,0-4.3-1.6-4.3-3.6c0-2,1.9-3.6,4.3-3.6c2.4,0,4.3,1.6,4.3,3.6
				C119,12.1,117,13.8,114.6,13.8 M114.6,3.4c-4.4,0-8,3-8,6.8c0,3.7,3.6,6.8,8,6.8c4.4,0,8-3,8-6.8C122.7,6.4,119.1,3.4,114.6,3.4"
				/>
			<path class="st0" d="M97.9,6.4c1.6,0,3.1,0.8,3.8,1.9h3.9c-0.9-2.9-4-5-7.8-5c-4.4,0-8,3-8,6.8c0,3.7,3.6,6.8,8,6.8
				c3.7,0,6.9-2.1,7.8-5h-3.9c-0.7,1.1-2.2,1.9-3.8,1.9c-2.4,0-4.3-1.6-4.3-3.6C93.6,8.1,95.5,6.4,97.9,6.4"/>
			<polygon class="st0" points="56.2,3.8 50.8,3.8 45.4,7.8 45.4,3.8 41.8,3.8 41.8,16.3 45.4,16.3 45.4,11.9 47.9,9.9 51.6,16.3 
				56.2,16.3 51.1,7.6 			"/>
		</g>
	</g>
</g>
</svg>
